<?xml version="1.0" encoding="UTF-8"?>
<svg id="Layer_1" xmlns="http://www.w3.org/2000/svg" version="1.1" viewBox="0 0 274.15 271.75">
  <!-- Generator: Adobe Illustrator 29.2.1, SVG Export Plug-In . SVG Version: 2.1.0 Build 116)  -->
  <defs>
    <style>
      .st0, .st1 {
        fill: #f1f1f1;
      }

      .st0, .st2 {
        display: none;
      }

      .st2, .st3 {
        fill: #d3203c;
      }
    </style>
  </defs>
  <circle class="st1" cx="130.5186" cy="155.0975" r="102.8626"/>
  <path class="st0" d="M225.7257,213.8761c-9.4863,2.5139-19.3046,3.4862-28.9688,5.1582-21.522,3.6996-43.1034,7.1147-64.6017,10.8499-3.9842.6996-6.4388.0949-7.8973-3.8894-.902-2.1367-2.0142-4.1784-3.3202-6.0949-.9723-1.6008-1.5059-4.5178-4.3163-2.6087-2.4902,1.672,0,3.3439.6759,4.8262,1.1146,2.4783,2.5969,4.7431,3.8894,7.1977.3676.6759.9724,1.589-.1423,2.0158-.8775.3202-1.2925-.3676-1.7075-1.1858-1.3044-2.7036-2.9289-5.2412-4.2095-7.9448s-2.9526-2.9289-5.336-1.8498c-5.4665,2.4546-10.4349,5.9289-16.1623,7.8736-2.3716.8182-.5455,2.4546.1186,3.5574,2.4427,4.091,2.4783,4.0198-2.3716,4.8024-13.4705,2.1937-26.9174,4.4467-40.3168,6.6641-8.6681,1.4229-6.4507,2.4783-11.597-5.0989-.9131-1.3399-1.7668-2.7392-2.6443-4.1147-5.4902-11.3243-10.2926-22.8975-11.8579-35.5736-4.7431-39.6527,8.2294-72.4279,39.6409-96.9618,26.6565-20.8106,57.1194-25.6604,89.776-17.6327-.3202,4.4586-.6285,8.929-.9605,13.6128.6008-.0252,1.1954-.1329,1.7668-.3202,2.7866-1.3399,3.8301-.498,3.7827,2.5732,0,2.6206.3676,5.2649.581,7.8855l.7589.0711c1.3162-6.0238,2.6206-12.0357,3.9724-18.2848q-6.759,1.8617-6.9131-4.4823c3.3914,1.1858,6.7709,2.3716,10.1622,3.4862.6285,2.1937,2.5376,1.3399,3.7589,1.2688,4.1621-.249,4.2925,1.921,3.4151,4.9684-1.0316,3.5574-2.0633,7.008-3.0119,10.5298-.2253.8419-1.9091,1.9328-.1067,2.5732,1.3162.4743,1.6245-1.0791,2.1107-1.9921,1.9684-3.6997,3.3321-7.6958,5.7748-11.1464l9.3559,6.2135c-2.502,5.3479-6.6878,9.593-9.4863,14.7275l-.6047.8538c-.2964.3557-.7589.7115-.166,1.1858.0711.0593.4862-.3439.7352-.5455l.8775-.7826,13.9211-11.1938,5.3005,5.6799c-1.8735,1.8024.2253,2.7985,1.0079,3.6404,2.3716,2.5376,1.3281,3.3914-1.4229,4.257-4.9092,1.5297-9.7235,3.3676-14.5852,5.0752,8.4902.3913,16.4587-2.5139,24.7592-2.7985,1.3044,3.4269,4.3637,5.8341,5.4546,9.3914-4.008-.6878-8.0396-1.3162-12.0357-2.087-2.3123-.4387-3.6878-.1897-2.2767,2.502,1.6364,3.1068,0,3.3795-2.5376,3.2728-2.8103-.1186-5.6443,0-8.4665,0v.8538l19.1979,5.8578q-2.0396-7.3163,5.6562-7.9329c.9368-.0711,1.8973,0,2.8459,0,2.6562,7.1147,6.3795,13.7551,8.5021,21.107,5.3347,18.2484,5.6338,37.6001.8656,56.0047-.3321,1.3518-.427,2.6562-.6404,3.9842ZM159.618,200.4767c19.9449.3557,31.5182-8.846,33.3562-24.1189.7119-5.1641.3076-10.4208-1.1858-15.4152-9.095-28.8502-28.6249-47.0876-57.4751-55.3051-9.261-2.6324-18.7236-2.2174-27.4984,2.4902-10.5654,5.6799-15.5457,19.103-12.6998,32.7989,3.1898,15.2967,11.265,27.7356,22.3758,38.2535,12.9725,12.2255,27.9253,20.4548,43.1271,21.2967ZM89.9649,226.564c3.0128-.0784,5.9524-.9451,8.5258-2.5139,11.0851-6.1494,22.6916-11.3078,34.6843-15.4152.8775-.2964,2.5969.3202,2.4902-1.7905-.083-1.7905-1.5534-1.8617-2.4902-2.2056-19.2097-7.174-33.8187-19.5062-43.0559-37.9452-.415-.8419-.7589-1.838-1.9921-1.672s-1.4111,1.1858-1.5415,2.1107c-2.0158,14.1109-6.1661,27.6288-10.7907,41.0638-3.5811,10.3993,5.3598,18.4627,14.1702,18.4627v-.0949ZM162.8552,202.5756c-20.8817.1186-37.1863-9.6405-51.5224-23.526-14.6326-14.2294-22.3758-31.1743-20.2295-52.0679-3.3558,7.6294-4.5298,16.0401-3.3914,24.2968,1.7668,14.0397,9.2254,24.9015,19.4469,34.0677,13.2927,11.9765,28.1506,20.2177,46.803,19.2335,3.0746.019,6.114-.6537,8.8934-1.9684v-.0356ZM79.1742,229.5403c1.6601,0,2.9289-.3913,3.4625-1.5415.6522-1.4229-.9486-1.6364-1.672-2.2767l-3.0356-2.6206c-.7589-.6403-1.1858-2.1344-2.502-1.5178-1.255.6998-1.8135,2.2092-1.3162,3.5574.41,2.4933,2.5371,4.3415,5.0633,4.3993Z"/>
  <path class="st1" d="M129.1581,124.4255c7.2096,0,16.1623,8.1345,16.9568,15.3204.5099,4.589-2.0396,7.3163-6.6523,7.1147-7.1147-.332-15.7235-8.3005-16.601-15.3559-.5217-4.4111,1.8854-7.1147,6.2965-7.0792Z"/>
  <path class="st2" d="M154.94,43.62c-.93-.19-2.16-.5-3.41-.69-40.86-6.19-73.43,7.55-97.94,40.72-1.24,1.67-2.15,5-5.09,2.82-2.54-1.89-.18-3.94,1-5.64,23.0437-34.0575,64.3654-50.8382,104.63-42.49.6772.121,1.3455.2881,2,.5,1.2568.301,2.0316,1.5639,1.7306,2.8207-.0145.0604-.0313.1202-.0506.1793-.29,1.28-1.24,1.83-2.87,1.78Z"/>
  <path class="st2" d="M42.6,96.34c1.2411-.0624,2.2977.8931,2.3601,2.1342.0134.2658-.0205.5318-.1001.7858-.2374,1.0036-.5723,1.9816-1,2.92-10.1533,25.88-9.56,51.4867,1.78,76.82.47,1.05,1.06,2.05.77,3.27-.1781.9468-.9695,1.6561-1.93,1.73-1.69.24-2.5-.8-3.13-2.15-3.7109-7.8062-6.3771-16.0673-7.93-24.57-3.6689-19.4715-1.5481-39.5914,6.1-57.87.57-1.41.97-2.93,3.08-3.07Z"/>
  <path class="st2" d="M179.5017,94.3581c-2.4427,3.4506-3.8064,7.4467-5.7748,11.1464-.4862.9131-.7945,2.4664-2.1107,1.9921-1.8024-.6403-.1186-1.7312.1067-2.5732.9486-3.5574,1.9803-7.0199,3.0119-10.5298.8775-3.0475.7471-5.2175-3.4151-4.9684-1.1858.0711-3.1305.9249-3.7589-1.2688,2.2886-6.4151,4.4941-12.8658,6.9131-19.2453,1.1858-3-.1779-2.8933-2.3716-2.3716-1.4111.332-2.7985,1.1858-4.7431.332,6.3874-12.3638,35.5476-44.9794,41.9192-57.272l.7233.2846c-1.9803,7.6483-26.587,35.6314-28.8044,43.2204-.9605,3.2728-.2727,4.0198,3.0238,3.7589,5.2175-.4032,5.2293-.2134,2.9645,4.4348-3.2965,6.8183-6.6048,13.6366-10.2215,21.0833l8.4547-1.1028-5.9171,13.0792Z"/>
  <path class="st2" d="M235.29,137c.0656,5.3694-.2888,10.7358-1.06,16.05-.31,1.86-.21,4.38-3.08,4s-2.16-2.78-1.9-4.64c3.1534-21.7039-1.1663-43.835-12.25-62.76-.91-1.58-1.78-3.31.2-4.51,2.21-1.33,3.29.45,4.26,2.12,8.8955,15.0789,13.6653,32.2336,13.83,49.74Z"/>
  <path class="st3" d="M215.1094,109.2773c-9.0925.3117-17.8212,3.4941-27.1215,3.0655,5.3256-1.8705,10.5992-3.8968,15.9768-5.5594,3.0135-.9482,4.1436-1.8834,1.5587-4.6631-.8573-.9222-3.1564-2.0133-1.1041-3.9877,6.7804-2.2991,13.5088-4.7021,20.3281-6.8583,2.8966-.9092,3.2213-1.8575,1.182-4.1695-4.1306-4.6631-4.0397-4.7411,2.0523-6.7154,7.6507-2.4809,15.3013-4.9359,22.926-7.5208,1.0692-.484,2.295-.484,3.3642,0-3.624,4.0397-8.43,6.066-12.6905,8.7547-2.7797,1.7535-3.637,2.7537-.8703,5.4555,5.1957,5.0658,5.0528,5.1957-1.8055,7.209-5.8841,1.7016-11.6903,3.4681-17.6524,4.9619-3.0914.7794-3.8968,1.7276-1.2989,4.0786,1.1041.9612,2.0263,2.1172,3.2083,3.3772-2.5069,2.0393-5.6113,1.3249-8.0533,2.5719Z"/>
  <path class="st3" d="M160.8534,196.461c-16.6522-.9222-33.0316-9.9368-47.1899-23.3806-12.1709-11.5214-21.0166-25.1471-24.5107-41.9032-3.1174-15.0026,2.3381-29.7064,13.9115-35.9282,9.612-5.1957,19.9774-5.6113,30.122-2.7277,31.6028,9.0015,52.9961,28.979,62.9588,60.5818,1.6358,5.471,2.0788,11.2292,1.2989,16.886-2.0653,16.7821-14.7298,26.8617-36.5907,26.472ZM125.3019,143.0883c-4.832,0-7.4688,2.9226-6.8843,7.7935.9482,7.6636,10.3914,16.4574,18.1849,16.821,5.0528.2468,7.7935-2.7407,7.287-7.7935-.8833-7.9104-10.6901-16.7691-18.5876-16.821ZM135.9531,173.4571c-5.4165-2.442-11.0798-4.2215-15.3273-8.5859-4.2475-4.3644-6.3517-9.5731-7.1571-16.3275-3.4941,14.5869,11.7682,26.9786,22.4844,24.9133Z"/>
  <path class="st3" d="M84.5547,225.1412c-9.7159,0-19.4838-8.7807-15.5871-20.1723,5.0658-14.7168,9.612-29.5245,11.8202-44.9817.1429-1.0521.3897-2.1172,1.6886-2.3121s1.7276.9092,2.1822,1.8315c10.1186,20.2372,26.1213,33.772,47.1639,41.5655,1.0261.3767,2.5978.4546,2.7277,2.416.1169,2.3121-1.7665,1.6366-2.7277,1.9614-13.1369,4.4993-25.8508,10.1499-37.9935,16.886-2.7976,1.7198-5.9926,2.6864-9.2743,2.8057ZM82.3335,191.0705c2.9745-1.4158,4.2605-4.2215,6.1309-6.4946,4.0137-4.793,3.8968-6.4946-.3897-11.0279-1.4158-1.5457-2.5978-1.6366-3.3772.2208-1.7535,4.2475-3.3512,8.5469-4.832,12.8983-.7534,2.1952.8053,3.4032,2.468,4.3514v.052ZM73.1242,203.5142c3.2863-2.1173,5.0918-5.4815,7.0921-8.6378.8573-1.2989-.4286-2.7407-1.4808-3.3512-1.6107-.9352-1.9484.7923-2.2861,1.7925-1.1171,3.2473-2.0783,6.6245-3.3252,10.1446v.052Z"/>
  <path class="st3" d="M164.3995,198.7991c-3.0414,1.4536-6.371,2.2038-9.7419,2.1952-20.4321,1.0781-36.7076-7.9494-51.2685-21.0685-11.1967-10.0796-19.3669-21.9388-21.3023-37.318-1.2397-9.0317.0461-18.2304,3.7149-26.576-2.351,22.887,6.1309,41.5655,22.1596,57.0357,15.704,15.1714,33.5642,25.8616,56.4382,25.7317Z"/>
  <path class="st3" d="M72.7345,228.2976c-2.7923-.0698-5.1311-2.1348-5.5464-4.8969-.5448-1.4767.067-3.1303,1.4418-3.8968,1.4028-.6754,1.9094.9612,2.7407,1.6626l3.3252,2.8966c.7923.7014,2.5978.9352,1.8315,2.4939-.5845,1.3119-1.9744,1.7276-3.7929,1.7406Z"/>
  <path class="st3" d="M246.494,201.5004"/>
  <path class="st3" d="M90.4355,235.3102c-3.11.7879.9866-.0051-1.6762-4.4864-.7274-1.208-2.7537-3.0005-.1299-3.8968,6.2738-2.1692,11.6903-5.9361,17.7043-8.6248,2.5978-1.182,4.5073-.7794,5.8452,2.0263s3.1824,5.7412,4.6112,8.7028c.4546.9482.8244,1.9189,1.7856,1.5162,1.221-.4676.6434-1.6851.2407-2.4255-1.4158-2.5978-3.0395-5.1957-4.2605-7.8845-.7274-1.6237-3.4681-3.4551-.7404-5.2866,3.0785-2.0913,3.663,1.1041,4.7281,2.8576,1.162,2.0504,1.74,3.6914,3.2789,6.123.2308.3647.403.7692.5567,1.1726.8352,2.1924,2.8044,3.5285,4.4131,4.0404"/>
  <path class="st3" d="M198.9203,91.6411l-15.3545,12.3464-.9286-.7324c3.1128-5.6631,7.7296-10.3453,10.4631-16.2439,2.8773-4.0283,5.6631-8.1219,8.6843-12.0456,1.6872-2.1972,1.5825-3.649-.9678-4.8915-3.7013-1.8049-2.4719-3.3482,0-5.3623,8.1873-6.5394,16.2047-13.2881,24.6666-20.2591-4.3291-2.1972-8.5405-2.4981-12.5164-3.5836-2.3934-.6539-2.825-1.3079-.837-3.0866,9.626-8.3966,19.082-17.0025,28.8911-25.1636,2.3673-1.9749,3.6621-5.65,8.0696-5.8201-4.95,7.5563-10.3116,14.8348-16.0608,21.8024-2.2888,2.8119-2.4457,4.4076,1.3079,5.637,2.1319.6932,4.0544,2.0011,6.1601,2.7858,3.2305,1.1902,2.6158,2.4327.4447,4.2506-7.8473,6.7487-15.6946,13.5889-23.5419,20.403-.7455.6539-1.988,1.1509-1.7656,2.3803s1.7003.9548,2.6158,1.3079c2.315.9286,6.3432.327,6.7879,2.3803.5624,2.6158-3.2697,3.7667-5.2315,5.5062-6.814,6.2386-13.8635,12.281-20.8868,18.3888Z"/>
  <path class="st3" d="M182.8072,80.1579c-2.6942,3.8059-4.1983,8.2135-6.3694,12.2941-.5362,1.0071-.8763,2.7204-2.328,2.1972-1.988-.7063-.1308-1.9095.1177-2.8381,1.0463-3.9236,2.1842-7.7427,3.322-11.614.9678-3.3613.824-5.7547-3.7667-5.48-1.3079.0785-3.4528,1.0201-4.146-1.3994,2.5242-7.0756,4.9569-14.1905,7.625-21.2269,1.3079-3.3089-.1962-3.1912-2.6158-2.6158-1.5564.3662-3.0866,1.3079-5.2315.3662,7.0451-13.6368,14.0815-27.2345,21.1092-40.7928l.7978.3139c-2.1842,8.4358-4.1983,16.924-6.644,25.2944-1.0594,3.6098-.3008,4.4337,3.3351,4.146,5.7547-.4447,5.7678-.2354,3.2697,4.8915-3.6359,7.5203-7.2849,15.0406-11.2739,23.2541l9.3252-1.2163-6.5263,14.4259Z"/>
  <path class="st3" d="M158.4283,69.4725q.17,6.9972,7.625,4.9438c-1.491,6.8925-2.9297,13.5235-4.3814,20.1675l-.837-.0785c-.2354-2.8904-.6932-5.807-.6409-8.6974,0-3.3874-1.0986-4.316-4.1721-2.8381-.6303.2065-1.286.3253-1.9488.3531.3662-5.1661.7062-10.0968,1.0594-15.0145l1.4517-7.4942c.7586,3.5705,1.2948,6.1209,1.8441,8.6582Z"/>
</svg>